<svg width="100" height="100" viewBox="0 0 100 100" fill="none" xmlns="http://www.w3.org/2000/svg">
  <rect width="100" height="100" rx="30" fill="#C96442"/>
  <path d="M50 35V70M50 70L38 58M50 70L62 58" stroke="white" stroke-width="7" stroke-linecap="round" stroke-linejoin="round"/>
  <path d="M30 46C33 46 35 41 38 41C41 41 43 46 46 46L54 46C57 46 59 51 62 51C65 51 67 46 70 46" stroke="white" stroke-width="6" stroke-linecap="round"/>
  <path d="M30 56C33 56 35 51 38 51C41 51 43 56 46 56L54 56C57 56 59 61 62 61C65 61 67 56 70 56" stroke="white" stroke-width="6" stroke-linecap="round"/>
</svg>
